<?xml version="1.0" encoding="UTF-8" standalone="no"?>
<!-- Created with Inkscape (http://www.inkscape.org/) -->
<svg
   xmlns:svg="http://www.w3.org/2000/svg"
   xmlns="http://www.w3.org/2000/svg"
   version="1.0"
   width="466.01941"
   height="300"
   id="svg2"
   xml:space="preserve"><defs
     id="defs4" /><rect
     width="466.01941"
     height="300"
     x="3.981226e-008"
     y="-2.4154663e-009"
     style="fill:#000000;fill-opacity:1;stroke:none;stroke-width:3;stroke-miterlimit:4;stroke-dasharray:none;stroke-opacity:1"
     id="rect2295" /><path
     d="M 171.39321,192.56796 C 160.57282,179.31553 154.09224,162.3932 154.09224,143.95631 C 154.09224,101.47573 188.53398,67.033979 231.01457,67.033979 C 273.49515,67.033979 307.9369,101.47573 307.9369,143.95631 C 307.9369,169.31068 295.67476,191.78155 276.75729,205.80583 C 266.44661,213.45146 254.15534,218.56311 240.80097,220.26699 L 228.32039,203.15534 L 226.00486,199.96602 L 225.56796,197.78155 L 231.66991,190.80583 L 234.7136,186.88835 L 237.11651,184.28155 L 243.21845,186.46602 L 249.75729,188.43204 L 253.67476,189.08738 L 256.51457,187.7767 L 258.26214,185.15534 L 259.13593,179.0534 L 263.0534,175.79126 L 262.83496,172.74757 L 265.87864,171.43689 L 267.18932,166.20874 L 273.94661,165.5534 L 275.69418,163.36893 C 275.69418,165.23301 275.69418,160.44175 275.69418,158.57767 C 275.69418,153.65534 273.48059,150.34951 275.69418,145.93689 C 276.77185,143.78155 278.2136,143.11165 279.61165,141.14563 C 281.34466,138.72815 282.21845,137.27184 283.52913,134.6068 C 286.58738,128.43204 287.73787,124.47087 288.32039,117.61165 C 288.58253,114.56796 289.22331,112.68932 288.32039,109.76213 C 287.03884,105.62621 284.12622,104.38835 280.90777,101.47573 C 276.91748,97.864076 274.15049,96.436892 269.57767,93.626212 C 264.33496,90.407766 261.39321,88.41262 255.62622,86.213591 C 250.54369,84.276698 247.55826,82.893202 242.11165,82.733008 C 237.11651,82.572814 234.17476,83.184465 229.47088,84.917474 C 225.26214,86.461164 222.88835,87.684465 219.45146,90.582523 C 215.37379,94.019416 213.7136,96.786406 211.16505,101.47573 C 208.83495,105.78641 208.04855,108.50971 206.81068,113.24272 C 203.95631,124.09223 209.0534,131.22815 205.9369,142.00485 C 204.29127,147.71359 203.18447,151.04854 199.83495,155.95631 C 197.53398,159.33495 195.53884,160.70388 192.85923,163.80582 C 189.21845,168 187.1068,170.31553 183.71359,174.69903 C 180.87379,178.35437 179.34466,180.46602 176.73787,184.28155 C 174.56796,187.45631 171.39321,192.56796 171.39321,192.56796 L 171.39321,192.56796 z "
     style="fill:#ffffff;fill-rule:evenodd;stroke:#000000;stroke-width:0.2992;stroke-miterlimit:3.86369991"
     id="path12" /><path
     d="M 172.16505,170.54854 L 192.20389,184.06311 M 173.47573,154.19417 L 193.52913,167.70874"
     style="fill:none;stroke:#ffffff;stroke-width:1.19679999;stroke-miterlimit:3.86369991"
     id="path10" /><path
     d="M 171.23301,192.88835 C 185.03884,210.20388 205.64563,220.66019 229.51457,221.08252 C 233.38835,221.15534 237.04369,220.76214 240.77185,220.26699 L 225.97573,199.96602 L 225.53884,197.78155 L 231.64078,190.80583 L 234.68447,186.88835 L 237.08738,184.28155 L 243.18932,186.46602 L 249.72816,188.43204 L 253.64563,189.08738 L 256.48544,187.7767 L 258.23301,185.15534 L 259.1068,179.0534 L 263.02428,175.79126 L 262.80583,172.74757 L 265.84952,171.43689 L 267.1602,166.20874 L 273.91748,165.5534 L 275.66505,163.36893 C 275.66505,165.23301 275.66505,160.44175 275.66505,158.57767 C 275.66505,153.65534 273.45146,150.34951 275.66505,145.93689 C 276.74272,143.78155 278.18447,143.11165 279.58253,141.14563 C 281.31554,138.72815 282.18932,137.27184 283.5,134.6068 C 286.55826,128.43204 287.70874,124.47087 288.29127,117.61165 C 288.5534,114.56796 289.19418,112.68932 288.29127,109.76213 C 287.00971,105.62621 284.09709,104.38835 280.87864,101.47573 C 276.88835,97.864076 274.12136,96.436892 269.54855,93.626212 C 264.30583,90.407766 261.36408,88.41262 255.59709,86.213591 C 250.51457,84.276698 247.52913,82.893202 242.08253,82.733008 C 237.08738,82.572814 234.14563,83.184465 229.44175,84.917474 C 225.23301,86.461164 222.85923,87.684465 219.42233,90.582523 C 215.34466,94.019416 213.68447,96.786406 211.13593,101.47573 C 208.80583,105.78641 208.01942,108.50971 206.78156,113.24272 C 203.92719,124.09223 209.02427,131.22815 205.90777,142.00485 C 204.26214,147.71359 203.15534,151.04854 199.80583,155.95631 C 197.50486,159.33495 195.50971,160.70388 192.8301,163.80582 C 189.18932,168 187.07767,170.31553 183.68447,174.69903 C 180.84466,178.35437 179.31554,180.46602 176.70874,184.28155 C 174.50971,187.57282 171.23301,192.88835 171.23301,192.88835 L 171.23301,192.88835 z "
     style="fill-rule:evenodd;stroke:#000000;stroke-width:0.5984;stroke-miterlimit:3.86369991"
     id="path8" /><line
     style="fill:none;stroke:#000000;stroke-width:1.19679999;stroke-miterlimit:3.86369991"
     stroke-miterlimit="3.8637"
     x1="192.65535"
     y1="133.93689"
     x2="195.48059"
     y2="163.57281"
     id="line14" /><polygon
     points="157.48,31.01 161.52,17.84 165.52,31.01 154.78,22.97 168.19,22.97 157.48,31.01 "
     transform="matrix(1.4563107,0,0,1.4563107,0.3495146,0.9757255)"
     style="fill:#ffffff;stroke:#ffffff;stroke-width:0.36977002;stroke-miterlimit:3.86369991"
     id="polygon16" /><polygon
     points="171.1,10.5 172.15,11.4 170.2,41.33 169.6,41.77 172.89,42.67 172.29,41.62 173.49,28.61 175.89,43.42 176.48,43.87 176.93,44.17 177.53,44.02 178.13,43.57 181.12,29.21 181.12,44.77 180.37,44.92 186.21,47.76 185.46,46.56 186.51,11.4 187.71,10.5 181.57,10.5 182.62,11.55 178.28,26.06 176.48,11.4 177.53,10.5 171.1,10.5 "
     transform="matrix(1.4563107,0,0,1.4563107,0.3495146,0.9757255)"
     style="fill:#ffffff;stroke:#000000;stroke-width:0.10272533;stroke-miterlimit:3.86369991"
     id="polygon18" /><polygon
     points="190.85,10.5 191.45,11.25 190.4,49.26 189.05,49.26 195.49,53.59 194.74,51.95 196.08,11.7 196.83,10.5 190.85,10.5 "
     transform="matrix(1.4563107,0,0,1.4563107,0.3495146,0.9757255)"
     style="fill:#ffffff;stroke:#000000;stroke-width:0.10272533;stroke-miterlimit:3.86369991"
     id="polygon20" /><polygon
     points="203.72,10.5 204.16,11.25 197.88,54.34 196.68,54.34 200.27,57.93 200.27,56.44 201.77,45.81 204.76,46.86 205.96,61.82 204.16,61.67 214.3,78.66 211.05,67.66 206.86,11.25 207.61,10.5 203.72,10.5 "
     transform="matrix(1.4563107,0,0,1.4563107,0.3495146,0.9757255)"
     style="fill:#ffffff;stroke:#000000;stroke-width:0.10272533;stroke-miterlimit:3.86369991"
     id="polygon22" /><path
     d="M 251.15534,230.06796 L 251.15534,230.06796 L 251.15534,230.06796 z M 235.79127,238.93689 C 234.7136,238.96602 233.62136,238.99515 232.52913,238.99515 M 315.37865,190.76214 C 301.23787,215.62136 276.21845,233.50485 246.80097,237.91748"
     style="fill:none;stroke:#000000;stroke-width:0.1357;stroke-miterlimit:3.86369991"
     id="path24" /><path
     d="M 301.42719,198.99029 L 304.03398,206.40291 C 306.2767,203.43204 313.51457,193.86408 315.36408,190.71845 L 307.09224,191.03883 C 305.47573,194.24272 303.48059,195.9466 301.42719,198.99029 L 301.42719,198.99029 z "
     style="fill:#ffffff;stroke:#ffffff;stroke-width:0.1357;stroke-miterlimit:3.86369991"
     id="path26" /><path
     d="M 246.80097,237.93204 L 251.31554,244.1068 C 247.5,244.80583 243.59709,245.25728 239.66505,245.51942 L 235.79127,238.93689 C 239.50486,238.67476 243.21845,238.58738 246.80097,237.93204 L 246.80097,237.93204 z "
     style="fill:none;stroke:#ffffff;stroke-width:0.5984;stroke-miterlimit:3.86369991"
     id="path28" /><path
     d="M 238.57282,231.45146 L 235.68932,239.02427 C 239.41748,238.76214 243.04369,238.54369 246.62622,237.87379 L 249.02913,230.35922 C 245.53398,231.24757 242.2136,231 238.57282,231.45146 L 238.57282,231.45146 z "
     style="fill:#ffffff;stroke:#ffffff;stroke-width:0.1357;stroke-miterlimit:3.86369991"
     id="path30" /><path
     d="M 261.97573,234.20388 L 267.49515,239.49029 C 263.86894,240.84466 260.09709,241.96602 256.26699,242.91262 L 251.31554,237.10194 C 254.92719,236.21359 258.56796,235.48544 261.97573,234.20388 L 261.97573,234.20388 z "
     style="fill:none;stroke:#ffffff;stroke-width:0.5984;stroke-miterlimit:3.86369991"
     id="path32" /><path
     d="M 253.51457,229.23786 L 251.22816,237.21845 C 254.85437,236.31553 258.39321,235.47087 261.80097,234.18932 L 263.70874,226.2233 C 260.43204,227.69418 257.03884,228.16019 253.51457,229.23786 L 253.51457,229.23786 z "
     style="fill:#ffffff;stroke:#ffffff;stroke-width:0.1357;stroke-miterlimit:3.86369991"
     id="path34" /><path
     d="M 276.48059,228.08738 L 282.8301,232.33981 C 279.49515,234.30583 275.97088,236.0534 272.35923,237.65534 L 266.47573,232.80583 C 269.89806,231.29126 273.34952,229.93689 276.48059,228.08738 L 276.48059,228.08738 z "
     style="fill:none;stroke:#ffffff;stroke-width:0.5984;stroke-miterlimit:3.86369991"
     id="path36" /><path
     d="M 267.29127,224.66505 L 266.41748,232.92233 C 269.82525,231.40777 273.1602,229.95146 276.30583,228.10194 L 276.80097,219.91748 C 273.8301,221.94175 270.56796,222.99029 267.29127,224.66505 L 267.29127,224.66505 z "
     style="fill:#ffffff;stroke:#ffffff;stroke-width:0.1357;stroke-miterlimit:3.86369991"
     id="path38" /><path
     d="M 289.7767,220.15049 L 296.76699,223.23786 C 293.82525,225.75728 290.66505,228.08738 287.37379,230.28641 L 280.73301,226.52913 C 283.83496,224.4466 286.99515,222.52427 289.7767,220.15049 L 289.7767,220.15049 z "
     style="fill:none;stroke:#ffffff;stroke-width:0.5984;stroke-miterlimit:3.86369991"
     id="path40" /><path
     d="M 280.12136,218.38835 L 280.70389,226.67476 C 283.80583,224.59223 286.83496,222.58252 289.60195,220.20874 L 288.66991,212.06796 C 286.09224,214.55825 283.06311,216.17476 280.12136,218.38835 L 280.12136,218.38835 z "
     style="fill:#ffffff;stroke:#ffffff;stroke-width:0.1357;stroke-miterlimit:3.86369991"
     id="path42" /><path
     d="M 301.17962,209.53398 L 308.6068,211.35437 C 306.14564,214.33981 303.4369,217.19418 300.58253,219.93204 L 293.38835,217.3835 C 296.08253,214.79126 298.86408,212.34466 301.17962,209.53398 L 301.17962,209.53398 z "
     style="fill:none;stroke:#ffffff;stroke-width:0.5984;stroke-miterlimit:3.86369991"
     id="path44" /><path
     d="M 291.36408,209.46117 L 293.37379,217.51456 C 296.0534,214.92233 298.70389,212.41748 301.01942,209.6068 L 298.82039,201.93204 C 296.70874,204.84466 293.86894,206.76699 291.36408,209.46117 L 291.36408,209.46117 z "
     style="fill:#ffffff;stroke:#ffffff;stroke-width:0.1357;stroke-miterlimit:3.86369991"
     id="path46" /><path
     d="M 315.59709,191.03883 L 318.4369,198.77184 C 316.47088,202.1068 314.28641,204.77184 311.89806,207.91748 L 304.12136,206.62136 C 306.36408,203.65049 313.74758,194.18447 315.59709,191.03883 L 315.59709,191.03883 z "
     style="fill:#ffffff;stroke:#ffffff;stroke-width:0.2992;stroke-miterlimit:3.86369991"
     id="path48" /><path
     d="M 315.46602,190.60194 C 301.33981,215.54854 276.2767,233.49029 246.80097,237.91748 C 243.21845,238.58738 239.50486,238.67476 235.79127,238.92233 C 234.7136,238.95146 231.59709,239.06796 230.50486,239.06796"
     style="fill:none;stroke:#ffffff;stroke-width:0.89760005;stroke-miterlimit:3.86369991"
     id="path50" /><path
     d="M 157.83495,198.99029 L 155.21359,206.40291 C 152.97088,203.43204 145.73301,193.86408 143.8835,190.71845 L 152.16991,191.03883 C 153.80097,194.24272 155.78156,195.9466 157.83495,198.99029 L 157.83495,198.99029 z "
     style="fill:#ffffff;stroke:#ffffff;stroke-width:0.1357;stroke-miterlimit:3.86369991"
     id="path52" /><path
     d="M 212.46117,237.93204 L 207.9466,244.1068 C 211.76214,244.80583 215.66505,245.25728 219.59709,245.51942 L 223.47088,238.93689 C 219.75728,238.67476 216.05826,238.58738 212.46117,237.93204 L 212.46117,237.93204 z "
     style="fill:none;stroke:#ffffff;stroke-width:0.5984;stroke-miterlimit:3.86369991"
     id="path54" /><path
     d="M 220.70389,231.45146 L 223.58738,239.02427 C 219.85923,238.76214 216.23301,238.54369 212.65049,237.87379 L 210.24758,230.35922 C 213.72816,231.24757 217.04855,231 220.70389,231.45146 L 220.70389,231.45146 z "
     style="fill:#ffffff;stroke:#ffffff;stroke-width:0.1357;stroke-miterlimit:3.86369991"
     id="path56" /><path
     d="M 197.28641,234.20388 L 191.76699,239.49029 C 195.39321,240.84466 199.16505,241.96602 202.99515,242.91262 L 207.9466,237.10194 C 204.33495,236.21359 200.70874,235.48544 197.28641,234.20388 L 197.28641,234.20388 z "
     style="fill:none;stroke:#ffffff;stroke-width:0.5984;stroke-miterlimit:3.86369991"
     id="path58" /><path
     d="M 205.74758,229.23786 L 208.03398,237.21845 C 204.40777,236.31553 200.86893,235.47087 197.46117,234.18932 L 195.5534,226.2233 C 198.8301,227.69418 202.23787,228.16019 205.74758,229.23786 L 205.74758,229.23786 z "
     style="fill:#ffffff;stroke:#ffffff;stroke-width:0.1357;stroke-miterlimit:3.86369991"
     id="path60" /><path
     d="M 182.78156,228.08738 L 176.43204,232.33981 C 179.76699,234.30583 183.29126,236.0534 186.90292,237.65534 L 192.78641,232.80583 C 189.37864,231.29126 185.92719,229.93689 182.78156,228.08738 L 182.78156,228.08738 z "
     style="fill:none;stroke:#ffffff;stroke-width:0.5984;stroke-miterlimit:3.86369991"
     id="path62" /><path
     d="M 191.97088,224.66505 L 192.84466,232.92233 C 189.4369,231.40777 186.10194,229.95146 182.95631,228.10194 L 182.46117,219.91748 C 185.43204,221.94175 188.70874,222.99029 191.97088,224.66505 L 191.97088,224.66505 z "
     style="fill:#ffffff;stroke:#ffffff;stroke-width:0.1357;stroke-miterlimit:3.86369991"
     id="path64" /><path
     d="M 169.5,220.15049 L 162.50971,223.23786 C 165.45146,225.75728 168.61165,228.08738 171.90292,230.28641 L 178.54369,226.52913 C 175.42719,224.4466 172.26699,222.52427 169.5,220.15049 L 169.5,220.15049 z "
     style="fill:none;stroke:#ffffff;stroke-width:0.5984;stroke-miterlimit:3.86369991"
     id="path66" /><path
     d="M 179.14078,218.38835 L 178.55825,226.67476 C 175.45631,224.59223 172.42719,222.58252 169.6602,220.20874 L 170.59224,212.06796 C 173.16991,214.55825 176.21359,216.17476 179.14078,218.38835 L 179.14078,218.38835 z "
     style="fill:#ffffff;stroke:#ffffff;stroke-width:0.1357;stroke-miterlimit:3.86369991"
     id="path68" /><path
     d="M 158.09709,209.53398 L 150.66991,211.35437 C 153.13107,214.33981 155.83981,217.19418 158.69418,219.93204 L 165.88835,217.3835 C 163.19418,214.79126 160.41262,212.34466 158.09709,209.53398 L 158.09709,209.53398 z "
     style="fill:none;stroke:#ffffff;stroke-width:0.5984;stroke-miterlimit:3.86369991"
     id="path70" /><path
     d="M 167.89806,209.46117 L 165.88835,217.51456 C 163.19418,214.92233 160.55825,212.41748 158.24272,209.6068 L 160.44175,201.93204 C 162.56796,204.84466 165.39321,206.76699 167.89806,209.46117 L 167.89806,209.46117 z "
     style="fill:#ffffff;stroke:#ffffff;stroke-width:0.1357;stroke-miterlimit:3.86369991"
     id="path72" /><path
     d="M 143.67961,191.03883 L 140.83981,198.77184 C 142.80583,202.1068 144.99029,204.77184 147.37864,207.91748 L 155.15534,206.62136 C 152.91262,203.65049 145.52913,194.18447 143.67961,191.03883 L 143.67961,191.03883 z "
     style="fill:#ffffff;stroke:#ffffff;stroke-width:0.2992;stroke-miterlimit:3.86369991"
     id="path74" /><path
     d="M 143.81068,190.60194 C 157.9369,215.54854 183,233.49029 212.47573,237.91748 C 216.05826,238.58738 219.77185,238.67476 223.48544,238.92233 C 224.56311,238.95146 227.67961,239.06796 228.77185,239.06796 M 228.11651,239.08252 L 230.95631,239.08252"
     style="fill:none;stroke:#ffffff;stroke-width:0.89760005;stroke-miterlimit:3.86369991"
     id="path76" /><polygon
     points="117.83,81.42 117.83,91.75 133.69,91.75 133.69,81.42 132.65,81.42 132.65,88.46 118.88,88.46 118.88,81.42 117.83,81.42 "
     transform="matrix(1.4563107,0,0,1.4563107,0.3495146,0.9757255)"
     style="stroke:#000000;stroke-width:0.41090134;stroke-miterlimit:3.86369991"
     id="polygon78" /><polygon
     points="117.38,81.35 134.07,81.35 134.14,80.75 125.84,76.71 117.23,80.75 117.38,81.35 "
     transform="matrix(1.4563107,0,0,1.4563107,0.3495146,0.9757255)"
     style="stroke:#000000;stroke-width:0.10272533;stroke-miterlimit:3.86369991"
     id="polygon80" /><path
     d="M 174.56796,134.59223 L 169.99515,193.42718 M 174.13107,140.69417 L 194.18447,154.20874 M 193.29612,140.91262 L 173.67961,154.86408 L 196.12136,170.3301 M 194.16991,154.19417 L 172.3835,170.75243"
     style="fill:none;stroke:#000000;stroke-width:1.19679999;stroke-miterlimit:3.86369991"
     id="path82" /><path
     d="M 186.4369,124.45631 C 186.4369,123.85922 186.91748,123.36408 187.52913,123.36408 C 188.14078,123.36408 188.62136,123.84466 188.62136,124.45631 C 188.62136,125.06796 188.14078,125.54854 187.52913,125.54854 C 186.91748,125.54854 186.4369,125.0534 186.4369,124.45631 L 186.4369,124.45631 z "
     style="stroke:#000000;stroke-width:0.1496;stroke-miterlimit:3.86369991"
     id="path84" /><polygon
     points="129.43,85.76 130.48,88.38 126.96,88.38 127.33,86.81 127.71,85.84 128.53,85.02 129.43,85.76 "
     transform="matrix(1.4563107,0,0,1.4563107,0.3495146,0.9757255)"
     style="stroke:#000000;stroke-width:0.10272533;stroke-miterlimit:3.86369991"
     id="polygon86" /><line
     style="fill:none;stroke:#000000;stroke-width:1.19679999;stroke-miterlimit:3.86369991"
     stroke-miterlimit="3.8637"
     x1="171.94661"
     y1="170.33009"
     x2="192.00002"
     y2="183.83009"
     id="line88" /><path
     d="M 229.63107,204.43689 L 275.38835,207.04369 M 231.37864,207.91748 L 279.32039,204"
     style="fill:none;stroke:#000000;stroke-width:0.5984;stroke-miterlimit:3.86369991"
     id="path90" /><polygon
     points="176.3,147.79 177.94,147.34 177.94,138.81 174.2,138.81 174.2,148.54 176.3,147.79 "
     transform="matrix(1.4563107,0,0,1.4563107,0.3495146,0.9757255)"
     style="stroke:#000000;stroke-width:0.10272533;stroke-miterlimit:3.86369991"
     id="polygon92" /><polygon
     points="82.9,160.06 84.92,162.74 91.7,157.62 100,154.59 98.18,152.17 92.17,155.39 92.14,155.35 96.87,150.44 94.75,147.63 89.68,154.94 82.9,160.06 "
     transform="matrix(1.4563107,0,0,1.4563107,0.3495146,0.9757255)"
     style="fill:#ffffff"
     id="polygon94" /><path
     d="M 130.71845,239.40291 C 128.47573,241.80583 129.64078,244.57282 131.85437,246.62621 C 134.06796,248.67961 136.89321,249.6699 139.13592,247.25243 L 150.48058,235.07767 C 152.7233,232.67476 151.54369,229.92233 149.34466,227.85437 C 147.14563,225.80097 144.30583,224.82524 142.06311,227.22816 L 130.71845,239.40291 L 130.71845,239.40291 z M 136.1068,243.33495 C 135.64078,243.84466 134.91262,244.45631 134.35923,243.93204 C 133.80583,243.40777 134.35923,242.65049 134.83981,242.15534 L 145.09224,231.14563 C 145.57282,230.63592 146.28641,230.02427 146.83981,230.54854 C 147.39321,231.07282 146.83981,231.8301 146.35923,232.32524 L 136.1068,243.33495 L 136.1068,243.33495 z "
     style="fill:#ffffff;fill-rule:evenodd"
     id="path96" /><path
     d="M 162.1602,238.25243 L 158.15534,235.45631 L 146.76699,251.7233 C 146.37379,252.29126 145.74757,253.00486 145.12136,252.56796 C 144.49515,252.13107 144.9466,251.30097 145.33981,250.73301 L 156.72816,234.46602 L 152.7233,231.6699 L 140.86893,248.59223 C 138.97573,251.28641 140.53398,253.84952 142.99515,255.58253 C 145.47088,257.31553 148.39806,257.8835 150.29126,255.18932 L 162.1602,238.25243 L 162.1602,238.25243 z "
     style="fill:#ffffff"
     id="path98" /><path
     d="M 161.76699,254.62136 L 167.22816,246.05825 L 167.34466,246.11651 L 163.17961,255.36408 L 161.76699,254.62136 L 161.76699,254.62136 z M 152.0534,261.07282 L 155.91262,263.12621 L 159.74272,257.54854 L 161.79612,258.64078 L 159.13107,264.84466 L 163.63107,267.23301 L 172.61651,244.06311 L 166.89321,241.01942 L 152.0534,261.07282 L 152.0534,261.07282 z "
     style="fill:#ffffff;fill-rule:evenodd"
     id="path100" /><path
     d="M 169.86408,270.01456 L 174.5534,259.47087 C 176.14078,260.1699 175.64563,261.29126 175.01942,262.67476 L 172.73301,267.80097 C 172.04855,269.35922 172.00486,270.20388 172.03398,270.97573 L 176.56311,272.98544 C 176.70874,271.98058 176.70874,270.88835 177.66991,268.70388 L 179.66505,264.23301 C 180.80097,261.6699 180.65534,260.31553 177.90292,258.88835 L 177.93204,258.8301 C 180.69903,259.86408 182.27185,258.36408 183.01457,256.68932 L 183.90292,254.69418 C 185.4466,251.24272 183.4369,249.01456 180.66991,247.79126 L 175.41262,245.4466 L 165.37864,267.99029 L 169.86408,270.01456 L 169.86408,270.01456 z M 178.45631,250.68932 L 178.99515,250.92233 C 179.7233,251.24272 179.8835,251.73786 179.40292,252.81553 L 177.91748,256.13592 C 177.4369,257.21359 176.97088,257.41748 176.24272,257.09709 L 175.70389,256.86408 L 178.45631,250.68932 L 178.45631,250.68932 z "
     style="fill:#ffffff;fill-rule:evenodd"
     id="path102" /><polygon
     points="128.41,189.13 129.16,186.82 126.38,185.92 128.17,180.42 130.84,181.29 131.59,178.98 128.92,178.11 130.12,174.42 132.9,175.32 133.65,173.02 127.67,171.07 122.44,187.19 128.41,189.13 "
     transform="matrix(1.4563107,0,0,1.4563107,0.3495146,0.9757255)"
     style="fill:#ffffff"
     id="polygon104" /><polygon
     points="134.74,190.85 137.27,177.82 137.33,177.78 137.12,191.32 141.05,192.08 144.28,175.44 141.71,174.94 139.61,185.74 139.57,185.73 139.98,174.61 135.4,173.72 132.17,190.35 134.74,190.85 "
     transform="matrix(1.4563107,0,0,1.4563107,0.3495146,0.9757255)"
     style="fill:#ffffff"
     id="polygon106" /><path
     d="M 209.14078,277.36893 C 208.68932,280.63107 211.2233,282.21845 214.20874,282.62621 C 217.19418,283.03398 220.07767,282.21845 220.52913,278.97088 L 222.84466,262.5 C 223.31068,259.23787 220.76214,257.65049 217.7767,257.24272 C 214.79127,256.82039 211.90777,257.65049 211.45631,260.89806 L 209.14078,277.36893 L 209.14078,277.36893 z M 215.81068,277.5 C 215.70874,278.18447 215.47573,279.10194 214.71845,279 C 213.96117,278.89806 213.99029,277.95146 214.09224,277.26699 L 216.18932,262.36893 C 216.29127,261.68447 216.52427,260.76699 217.28156,260.86893 C 218.03884,260.97087 218.00971,261.91748 217.90777,262.60194 L 215.81068,277.5 L 215.81068,277.5 z "
     style="fill:#ffffff;fill-rule:evenodd"
     id="path108" /><polygon
     points="158.14,179.22 160.4,179.26 160.45,176.83 152.57,176.69 152.53,179.12 154.79,179.16 154.53,193.68 157.89,193.73 158.14,179.22 "
     transform="matrix(1.4563107,0,0,1.4563107,0.3495146,0.9757255)"
     style="fill:#ffffff"
     id="polygon110" /><polygon
     points="167.25,193.43 166.53,185.25 169.33,185 169.12,182.58 166.32,182.83 165.98,178.96 168.9,178.71 168.69,176.29 162.42,176.84 163.9,193.72 167.25,193.43 "
     transform="matrix(1.4563107,0,0,1.4563107,0.3495146,0.9757255)"
     style="fill:#ffffff"
     id="polygon112" /><path
     d="M 249.88835,278.15534 C 250.39806,281.40291 253.29612,282.17476 256.28156,281.70874 C 259.26699,281.24272 261.77185,279.61165 261.26214,276.36408 L 258.65534,259.92233 C 258.14563,256.67476 255.24758,255.90291 252.26214,256.36893 C 249.2767,256.83495 246.77185,258.46602 247.28156,261.71359 L 249.88835,278.15534 L 249.88835,278.15534 z M 256.31068,276.33495 C 256.41262,277.01942 256.45631,277.96602 255.7136,278.08253 C 254.97088,278.19903 254.70874,277.29612 254.6068,276.61165 L 252.24758,261.75728 C 252.14563,261.07282 252.10195,260.12621 252.84466,260.00971 C 253.60195,259.8932 253.84952,260.79612 253.95146,261.48058 L 256.31068,276.33495 L 256.31068,276.33495 z "
     style="fill:#ffffff;fill-rule:evenodd"
     id="path114" /><path
     d="M 269.28641,278.46117 L 266.4903,267.26214 C 268.16505,266.83981 268.47088,268.01942 268.83496,269.50486 L 270.18932,274.95146 C 270.59709,276.59709 271.09224,277.29612 271.60195,277.89321 L 276.40777,276.69903 C 275.89806,275.82524 275.22816,274.95146 274.64563,272.63592 L 273.46602,267.88835 C 272.78156,265.16505 271.83496,264.18932 268.79127,264.77185 L 268.7767,264.69903 C 271.58738,263.81068 271.90777,261.6699 271.47088,259.87864 L 270.94661,257.75243 C 270.02913,254.08253 267.08738,253.57282 264.1602,254.30097 L 258.58253,255.69903 L 264.5534,279.64078 L 269.28641,278.46117 L 269.28641,278.46117 z M 264.17476,257.94175 L 264.74272,257.79612 C 265.51457,257.6068 265.95146,257.8835 266.22816,259.03398 L 267.10195,262.55825 C 267.39321,263.70874 267.14563,264.1602 266.37379,264.34952 L 265.80583,264.49515 L 264.17476,257.94175 L 264.17476,257.94175 z "
     style="fill:#ffffff;fill-rule:evenodd"
     id="path116" /><path
     d="M 286.99515,273.10194 L 289.22331,272.3301 L 285.13107,260.43204 L 279.36408,262.41262 L 280.51457,265.76214 L 281.66505,265.36893 L 283.04855,269.37379 C 283.28156,270.02913 283.48544,270.9466 282.75729,271.19418 C 282.02913,271.44175 281.63593,270.59709 281.40292,269.94175 L 276.50971,255.71359 C 276.2767,255.05825 276.07282,254.14078 276.80097,253.8932 C 277.52913,253.64563 277.92233,254.50486 278.15534,255.1602 L 279.42233,258.8301 L 284.03884,257.24272 L 282.50971,252.81553 C 281.43204,249.69903 278.44661,249.45146 275.6068,250.42719 C 272.75243,251.40291 270.56796,253.44175 271.63107,256.55825 L 277.04855,272.28641 C 277.92233,274.80583 280.09224,276 283.16505,274.95146 C 284.57767,274.47087 285.88835,273.17476 286.03398,271.57282 L 286.09224,271.54369 L 286.99515,273.10194 L 286.99515,273.10194 z "
     style="fill:#ffffff"
     id="path118" /><path
     d="M 290.09709,267.5534 C 291.4369,270.56796 294.4369,270.5534 297.18932,269.3301 C 299.94175,268.1068 301.95146,265.87864 300.61165,262.87864 L 293.83981,247.67476 C 292.5,244.66019 289.5,244.67476 286.74758,245.89806 C 283.99515,247.12136 281.98544,249.34952 283.32525,252.34952 L 290.09709,267.5534 L 290.09709,267.5534 z M 295.82039,264.13107 C 296.09709,264.75728 296.38835,265.6602 295.68932,265.96602 C 294.9903,266.27185 294.52428,265.47087 294.23301,264.8301 L 288.11651,251.08253 C 287.83981,250.44175 287.54855,249.5534 288.24758,249.24757 C 288.94661,248.94175 289.41263,249.74272 289.70389,250.3835 L 295.82039,264.13107 L 295.82039,264.13107 z "
     style="fill:#ffffff;fill-rule:evenodd"
     id="path120" /><polygon
     points="206.44,166.24 208.42,165.14 207.25,163.02 200.35,166.84 201.53,168.96 203.51,167.86 210.55,180.56 213.48,178.94 206.44,166.24 "
     transform="matrix(1.4563107,0,0,1.4563107,0.3495146,0.9757255)"
     style="fill:#ffffff"
     id="polygon122" /><polygon
     points="212.36,162.28 214.19,160.95 212.76,158.99 206.39,163.62 207.81,165.59 209.64,164.26 218.18,176 220.89,174.03 212.36,162.28 "
     transform="matrix(1.4563107,0,0,1.4563107,0.3495146,0.9757255)"
     style="fill:#ffffff"
     id="polygon124" /><polygon
     points="228.62,167.57 227,165.77 224.82,167.73 220.95,163.43 223.04,161.55 221.42,159.75 219.33,161.62 216.73,158.74 218.91,156.78 217.28,154.98 212.61,159.18 223.95,171.78 228.62,167.57 "
     transform="matrix(1.4563107,0,0,1.4563107,0.3495146,0.9757255)"
     style="fill:#ffffff"
     id="polygon126" /><polygon
     points="231.52,164.34 221.35,155.8 221.34,155.73 233.08,162.48 235.65,159.41 222.67,148.52 220.99,150.53 229.41,157.6 229.38,157.63 219.86,151.88 216.86,155.45 229.84,166.34 231.52,164.34 "
     transform="matrix(1.4563107,0,0,1.4563107,0.3495146,0.9757255)"
     style="fill:#ffffff"
     id="polygon128" /><polygon
     points="202.37,43.27 204.31,43.72 204.02,31 202.37,43.27 "
     transform="matrix(1.4563107,0,0,1.4563107,0.3495146,0.9757255)"
     style="stroke:#000000;stroke-width:0.10272533;stroke-miterlimit:3.86369991"
     id="polygon130" /><polygon
     points="120.23,13.35 119.03,11.85 118.13,11.25 116.93,10.65 108.26,10.65 103.77,77.68 111.66,63.4 109.86,63.71 110.95,45.66 119.03,37.58 120.23,13.35 "
     transform="matrix(1.4563107,0,0,1.4563107,0.3495146,0.9757255)"
     style="fill:#ffffff;stroke:#000000;stroke-width:0.10272533;stroke-miterlimit:3.86369991"
     id="polygon132" /><polygon
     points="111.85,13.05 110.95,42.67 114.84,38.48 115.44,13.05 111.85,13.05 "
     transform="matrix(1.4563107,0,0,1.4563107,0.3495146,0.9757255)"
     style="stroke:#000000;stroke-width:0.10272533;stroke-miterlimit:3.86369991"
     id="polygon134" /><polygon
     points="122.92,13.35 121.12,47.76 121.42,48.81 121.87,49.55 122.62,50.15 123.67,50.75 125.01,51.05 126.51,50.75 127.71,50.15 129.65,49.03 131.15,47.61 132.05,46.56 132.79,45.22 133.09,44.17 134.44,13.94 134.14,13.05 133.84,12.15 133.09,11.4 132.05,10.8 131,10.35 129.65,10.05 128.31,10.05 127.18,10.13 126.06,10.5 124.86,11.1 123.82,12 122.92,13.35 "
     transform="matrix(1.4563107,0,0,1.4563107,0.3495146,0.9757255)"
     style="fill:#ffffff;stroke:#000000;stroke-width:0.10272533;stroke-miterlimit:3.86369991"
     id="polygon136" /><polygon
     points="128.45,46.11 128.9,45.07 129.05,43.87 130.4,13.94 130.25,13.2 129.88,12.52 129.05,12.15 128.31,12.15 127.56,12.45 127.03,12.97 126.96,13.65 125.61,47.01 126.06,47.46 126.81,47.31 127.86,46.79 128.45,46.11 "
     transform="matrix(1.4563107,0,0,1.4563107,0.3495146,0.9757255)"
     style="stroke:#000000;stroke-width:0.10272533;stroke-miterlimit:3.86369991"
     id="polygon138" /><polygon
     points="136.31,10.44 141.92,10.44 141.49,11.48 141.77,25.47 146.41,10.51 147.9,10.51 149.4,22.18 151.94,10.96 151.49,10.44 154.34,10.44 153.74,11.11 148.65,41.63 148.05,42.23 147.3,42.08 146.71,41.63 146.11,40.73 145.06,28.46 140.87,42.08 140.57,42.98 139.97,43.58 139.08,43.58 138.63,43.13 136.98,11.56 136.31,10.44 "
     transform="matrix(1.4563107,0,0,1.4563107,0.3495146,0.9757255)"
     style="fill:#ffffff;stroke:#000000;stroke-width:0.10272533;stroke-miterlimit:3.86369991"
     id="polygon140" /></svg>